<svg version="1.1" id="Layer_1" xmlns="http://www.w3.org/2000/svg" xmlns:xlink="http://www.w3.org/1999/xlink" x="0px"
	y="0px" viewBox="0 0 1024 1024" enable-background="new 0 0 1024 1024" xml:space="preserve">
	<path fill="currentColor" opacity="1.000000" stroke="none" d="
M422.987213,614.541687 
	C420.948792,616.752136 422.277679,617.647827 423.947906,618.504639 
	C430.306946,621.766846 432.861786,626.968750 432.397766,634.079407 
	C432.051208,639.390076 432.476654,644.747131 432.274658,650.072754 
	C432.157379,653.164795 433.171631,655.054626 436.095184,656.229248 
	C442.248016,658.701355 448.197601,661.716431 455.448669,663.315674 
	C456.904236,655.954651 461.278534,651.078369 468.244720,648.894226 
	C462.418304,637.108276 462.794434,630.257935 469.161163,625.477844 
	C474.854370,621.203430 483.089783,621.442749 488.075195,626.027527 
	C494.031891,631.505554 494.087219,639.140503 488.167664,648.485291 
	C490.347321,649.971924 492.685822,651.281494 494.683655,652.989563 
	C498.693390,656.417664 499.869110,661.090881 499.312988,666.105286 
	C498.791534,670.806946 501.136108,672.478210 505.277039,672.578552 
	C509.441284,672.679504 513.610107,672.581238 517.775208,672.661133 
	C520.872986,672.720459 522.251709,671.198425 522.631714,668.212769 
	C524.283447,655.233276 524.317566,655.237610 534.004150,648.274231 
	C531.215515,643.454773 528.259094,638.581604 530.407288,632.524231 
	C531.560364,629.273010 533.148926,626.473511 536.080383,624.559570 
	C541.878601,620.773926 550.680054,621.757263 555.419495,626.716492 
	C560.887451,632.437988 560.536621,639.350952 553.884033,648.545837 
	C560.332520,650.916077 564.864441,655.166016 566.798767,661.855347 
	C567.363342,663.807739 569.137878,663.290283 570.614563,662.843994 
	C576.685120,661.009949 582.517029,658.586609 588.157837,655.698059 
	C590.028992,654.739868 590.574585,653.167297 590.452271,651.126465 
	C590.223328,647.307861 590.277649,643.470154 589.985229,639.658020 
	C589.237793,629.914612 590.212280,621.075378 601.322266,617.594360 
	C595.130249,605.409485 595.533752,598.214355 602.325195,593.311890 
	C607.795959,589.362793 616.690369,589.776733 621.345337,594.197205 
	C627.562988,600.101685 627.442017,607.330017 620.623108,617.007874 
	C625.737732,619.459717 630.784241,622.113586 632.738892,628.221375 
	C635.841492,627.541809 637.726379,625.350647 639.758362,623.542297 
	C664.485535,601.536133 681.232849,574.220154 692.501587,543.389221 
	C703.533325,513.206665 706.832581,482.038666 703.977112,450.080261 
	C703.481812,444.536346 702.144287,438.908203 703.788940,433.232880 
	C706.530762,423.771393 714.701233,418.067902 725.017700,418.685364 
	C734.295166,419.240631 740.713928,425.279480 742.361877,435.028534 
	C744.830200,449.631165 746.584900,464.424133 746.084229,479.140533 
	C744.865540,514.964966 737.723083,549.634277 723.558594,582.787048 
	C715.824402,600.889343 707.272156,618.525879 697.217590,635.432556 
	C683.494934,658.506836 668.012512,680.335388 650.977905,701.096069 
	C623.962524,734.020752 594.241516,764.290649 561.896851,791.953003 
	C547.099854,804.607971 532.198975,817.175476 516.061707,828.173645 
	C513.140808,830.164368 510.970154,830.374512 508.004547,828.368347 
	C487.255676,814.331726 468.190796,798.199646 449.660980,781.433167 
	C426.668671,760.628845 404.592926,738.876770 384.297363,715.405579 
	C348.220886,673.684326 317.425751,628.606689 297.370728,576.828918 
	C287.351837,550.962280 280.847260,524.290527 278.513000,496.562561 
	C276.813416,476.373810 277.633942,456.361572 280.650696,436.392975 
	C282.499542,424.155090 291.618988,417.045502 302.971863,418.806335 
	C314.402771,420.579285 321.107056,430.633698 319.757568,442.532043 
	C315.683380,478.453705 318.861420,513.554077 332.339050,547.437256 
	C341.275940,569.904846 352.877869,590.770325 368.740784,609.087708 
	C374.805939,616.091248 381.292450,622.767822 389.709625,627.800293 
	C392.460114,622.534485 396.479736,619.227234 401.584595,617.666382 
	C402.136353,615.693787 400.703796,614.992493 400.018860,613.964478 
	C395.713074,607.501831 396.376160,599.252502 401.637695,594.353638 
	C406.771149,589.574036 415.317444,589.283813 420.960052,593.697571 
	C426.781158,598.250977 428.010529,606.063843 423.992371,613.001343 
	C423.742645,613.432495 423.452454,613.840271 422.987213,614.541687 
z" />
	<path fill="currentColor" opacity="1.000000" stroke="none" d="
M555.773315,355.964478 
	C562.170959,361.332306 562.812866,365.567932 558.029358,373.224365 
	C553.780151,380.025452 550.861084,387.081604 551.328979,395.269165 
	C551.444092,397.283478 551.487183,399.249115 553.092346,401.176544 
	C555.293152,400.377930 556.624207,398.423767 558.191528,396.823578 
	C589.192932,365.171692 620.196472,333.521851 651.160645,301.833557 
	C663.852661,288.844757 676.412659,275.726776 689.137756,262.770691 
	C691.064697,260.808777 692.212097,258.765442 691.688721,256.134277 
	C688.950623,242.369476 695.542664,234.311249 706.281677,226.194672 
	C717.015137,218.082260 727.317871,213.037552 740.770996,214.714325 
	C745.698975,215.328506 750.757812,214.908630 755.757019,214.928955 
	C758.680481,214.940842 759.803894,216.233749 759.742371,219.264618 
	C759.495361,231.423599 759.393799,243.586853 759.393616,255.748535 
	C759.393616,258.739594 758.702454,261.160217 756.672607,263.461792 
	C751.387329,269.454529 746.271545,275.599426 741.189880,281.767426 
	C739.620911,283.671844 737.725098,284.355957 735.455444,283.969666 
	C723.974426,282.015503 716.040833,287.053955 708.245605,295.276581 
	C678.907532,326.223145 648.916382,356.550446 619.177002,387.116608 
	C605.589600,401.081696 591.953125,415.000061 578.483459,429.078003 
	C574.783142,432.945435 575.093872,436.945190 578.960815,440.663452 
	C583.788086,445.305084 589.693115,446.295563 596.115051,445.290558 
	C600.702393,444.572662 605.054565,442.649414 609.783752,442.672394 
	C614.848755,442.697021 619.022522,444.522217 621.207458,449.249786 
	C623.408508,454.012268 622.752869,458.630554 619.407532,462.817719 
	C617.495667,465.210724 615.193420,467.115479 612.492920,468.463745 
	C608.473511,470.470367 604.456299,472.535187 600.274963,474.153534 
	C587.458252,479.114258 581.327271,488.798126 580.370483,502.062775 
	C578.949585,521.761780 572.907715,539.502380 559.039856,554.062622 
	C546.718323,566.999268 531.612549,574.473755 513.905212,576.303406 
	C476.487091,580.169617 449.903595,563.608398 432.725708,531.354309 
	C423.733887,514.470825 422.600037,496.111450 427.452423,477.507263 
	C429.190125,470.844757 429.158783,470.829468 422.566650,468.244507 
	C392.892090,456.608521 369.616180,437.110199 352.389526,410.452759 
	C347.800842,403.351990 343.854828,395.747375 341.522095,387.493683 
	C338.427032,376.542694 343.474701,369.737274 354.680206,369.657715 
	C356.180023,369.647064 357.713287,369.864075 359.174561,369.627228 
	C370.303192,367.823578 375.964020,373.516632 380.675385,383.039032 
	C395.427124,412.854706 420.293579,430.244476 452.033630,438.484619 
	C453.817291,438.947662 455.678528,438.997986 457.389557,438.025085 
	C465.093597,433.644745 473.583832,431.033081 481.565002,427.269257 
	C492.667206,422.033478 500.321533,413.666870 504.738403,402.274902 
	C508.831665,391.717590 512.505493,380.962891 519.769104,371.969727 
	C525.291687,365.132172 531.671814,359.365662 539.904297,356.011292 
	C544.990601,353.938873 550.217712,353.465302 555.773315,355.964478 
M503.112854,486.382141 
	C500.268799,483.921631 497.949646,480.964783 493.424713,481.044189 
	C479.846008,481.282593 470.652466,494.832642 475.832458,507.465393 
	C478.273376,513.418213 482.008453,518.484436 486.930359,522.656799 
	C494.617340,529.173096 503.240692,530.831665 512.535706,526.936829 
	C524.006409,522.130310 526.568542,509.520569 517.983215,500.783356 
	C513.314453,496.031982 508.412262,491.510010 503.112854,486.382141 
M537.532043,451.958862 
	C535.052307,449.966492 533.247986,446.332642 529.210938,447.817688 
	C524.785889,449.445465 522.107849,453.183319 519.670288,456.942505 
	C518.750671,458.360748 519.224670,460.211182 520.376709,461.604797 
	C523.244995,465.074493 526.479370,468.161407 530.188354,470.730225 
	C531.677734,471.761780 533.246765,471.743927 534.934570,471.188354 
	C542.793030,468.601746 545.153381,460.302460 539.702454,454.313751 
	C539.143494,453.699554 538.583679,453.086182 537.532043,451.958862 
z" />
	<path fill="currentColor" opacity="1.000000" stroke="none" d="
M404.341705,322.362183 
	C395.803741,328.869507 388.658630,336.311890 381.977966,344.196259 
	C378.831573,347.909546 375.175690,349.689636 370.235443,349.453400 
	C364.253479,349.167267 358.247437,349.427856 352.253632,349.334930 
	C343.634369,349.201294 339.037415,342.280853 343.254639,334.616486 
	C348.064484,325.875122 354.394684,318.056305 361.359528,310.850555 
	C387.844208,283.449646 420.492401,267.826813 457.532837,260.604645 
	C473.742004,257.444122 490.092926,256.181183 506.589996,256.759460 
	C508.082458,256.811768 509.628967,256.799286 511.047882,257.189636 
	C515.034363,258.286316 517.846375,257.058075 520.739929,254.043640 
	C529.855591,244.547272 543.514893,241.849945 555.618652,247.181900 
	C567.875427,252.581238 573.910400,262.771271 573.963196,275.692688 
	C574.015808,288.574432 567.208191,298.163910 555.673950,303.841675 
	C544.448547,309.367310 532.963867,308.361023 524.062744,299.948425 
	C517.919250,294.142059 511.416443,292.600067 503.983917,292.465393 
	C467.740204,291.808594 434.037628,299.848907 404.341705,322.362183 
z" />
	<path fill="currentColor" opacity="1.000000" stroke="none" d="
M692.154236,383.128052 
	C681.263184,394.733704 670.028259,405.337158 655.363708,411.425079 
	C650.904541,413.276276 646.381165,414.731323 641.355042,413.499359 
	C634.332214,411.777985 629.893982,407.503479 628.807312,400.923340 
	C627.615356,393.705658 630.188782,387.333832 636.587830,384.018921 
	C647.364563,378.436249 657.233154,371.802032 664.736633,362.122803 
	C668.607605,357.129486 671.924500,351.688812 675.983398,346.863770 
	C680.386292,341.629669 686.476379,339.835907 693.120911,341.133301 
	C700.022217,342.480804 704.719666,346.639282 706.749817,353.555084 
	C707.838501,357.263489 707.389587,360.774384 705.686829,364.200745 
	C702.243774,371.129395 697.274902,376.962982 692.154236,383.128052 
z" />
	<path fill="currentColor" opacity="1.000000" stroke="none" d="
M629.848511,266.206360 
	C636.247498,275.097382 636.768921,282.684204 631.743164,290.554749 
	C627.546021,297.127441 618.105896,301.497986 611.040833,299.979187 
	C602.336182,298.107910 596.906189,292.588684 595.064087,284.047882 
	C593.297607,275.858307 596.058350,268.831329 602.700623,263.724609 
	C609.384827,258.585663 618.458374,258.397522 625.693298,262.860535 
	C627.095276,263.725372 628.308044,264.896881 629.848511,266.206360 
z" />
</svg>